<?xml version="1.0" standalone="no"?>
<!DOCTYPE svg PUBLIC "-//W3C//DTD SVG 20010904//EN"
 "http://www.w3.org/TR/2001/REC-SVG-20010904/DTD/svg10.dtd">
<svg version="1.0" xmlns="http://www.w3.org/2000/svg"
 width="500.000000pt" height="500.000000pt" viewBox="0 0 500.000000 500.000000"
 preserveAspectRatio="xMidYMid meet">
<metadata>
Created by potrace 1.14, written by Peter Selinger 2001-2017
</metadata>
<g transform="translate(0.000000,500.000000) scale(0.100000,-0.100000)"
fill="#000000" stroke="none">
<path d="M2010 4985 c0 -13 4 -14 20 -5 16 9 20 8 20 -5 0 -9 -4 -14 -9 -10
-5 3 -12 2 -15 -3 -9 -15 28 -9 40 6 8 12 12 12 21 0 8 -9 9 -19 2 -28 -8 -13
-10 -13 -19 0 -9 14 -15 7 -11 -14 1 -5 -5 -4 -13 4 -13 10 -16 10 -16 0 0 -9
-4 -9 -17 1 -14 12 -16 12 -8 0 6 -11 4 -13 -8 -8 -10 4 -17 1 -17 -6 0 -8 -4
-7 -11 3 -8 12 -12 12 -16 2 -4 -10 -8 -10 -21 0 -13 11 -14 11 -7 -1 6 -11 4
-13 -8 -8 -10 3 -17 3 -17 -1 0 -4 -18 -6 -40 -6 -24 1 -40 -3 -40 -10 0 -6
-4 -5 -9 3 -7 11 -13 12 -23 3 -8 -6 -24 -10 -36 -7 -12 2 -24 0 -27 -5 -3 -4
-14 -6 -25 -3 -11 3 -28 -1 -37 -8 -15 -12 -16 -12 -8 1 8 13 7 13 -8 1 -9 -7
-17 -11 -17 -8 0 3 -17 1 -37 -4 -21 -5 -54 -12 -73 -15 -33 -4 -87 -19 -120
-31 -8 -4 -18 -7 -22 -8 -5 -2 -9 -4 -10 -5 -2 -1 -12 -4 -23 -5 -11 -2 -33
-9 -50 -16 -16 -7 -34 -13 -40 -14 -5 0 -36 -13 -67 -28 -31 -15 -62 -27 -67
-27 -6 0 -11 -5 -11 -11 0 -5 -4 -8 -9 -4 -5 3 -12 1 -16 -5 -4 -6 -11 -8 -16
-5 -5 4 -9 1 -9 -6 0 -7 -3 -9 -7 -6 -3 4 -11 3 -17 -2 -6 -5 -28 -14 -48 -20
-21 -7 -38 -17 -38 -22 0 -5 -9 -9 -20 -9 -11 0 -23 -7 -26 -15 -4 -8 -10 -13
-14 -10 -5 3 -14 0 -22 -7 -7 -7 -25 -19 -39 -26 -14 -8 -39 -25 -54 -38 -15
-13 -33 -24 -38 -24 -5 0 -18 -9 -28 -21 -9 -11 -20 -20 -23 -19 -8 1 -20 -10
-83 -70 -27 -25 -51 -44 -55 -43 -5 2 -8 -2 -8 -7 0 -6 -12 -23 -28 -38 -49
-50 -87 -97 -84 -104 1 -5 -5 -8 -14 -8 -8 0 -12 -5 -9 -10 3 -6 -1 -13 -9
-16 -9 -3 -16 -13 -16 -21 0 -8 -4 -11 -10 -8 -5 3 -10 -1 -10 -9 0 -9 -5 -16
-12 -16 -6 0 -8 -3 -5 -7 4 -3 -4 -20 -17 -38 -13 -17 -32 -49 -41 -71 -9 -21
-24 -55 -32 -74 -9 -19 -15 -36 -14 -38 1 -1 -5 -16 -14 -32 -8 -16 -16 -41
-17 -55 -1 -14 -5 -25 -9 -25 -4 0 -6 -8 -4 -17 1 -10 0 -22 -4 -28 -8 -14
-13 -35 -15 -68 -2 -16 -9 -33 -17 -38 -11 -7 -11 -9 -1 -9 7 0 11 -4 8 -8 -7
-12 -14 -56 -20 -122 -3 -30 -8 -86 -12 -125 -3 -38 -8 -95 -9 -125 -2 -30 -4
-55 -5 -55 -1 0 -3 -10 -4 -22 -2 -13 1 -23 6 -23 5 0 4 -9 -2 -19 -7 -14 -7
-22 0 -26 6 -4 7 -11 4 -17 -12 -19 -12 -68 0 -68 7 0 8 -3 1 -8 -14 -9 -14
-45 0 -54 6 -5 6 -8 0 -8 -5 0 -10 -20 -11 -45 -1 -30 3 -42 10 -38 8 5 8 3 0
-8 -14 -17 -16 -528 -2 -546 5 -7 5 -14 -2 -18 -6 -3 -7 -12 -3 -18 4 -6 8
-34 9 -62 3 -54 12 -150 14 -150 1 0 3 -13 5 -30 2 -16 7 -43 10 -60 4 -16 8
-40 9 -52 0 -13 5 -23 10 -23 4 0 6 -7 3 -15 -4 -8 -2 -17 3 -20 5 -3 7 -14 5
-25 -2 -11 1 -20 7 -20 5 0 8 -7 4 -15 -3 -8 -1 -15 4 -15 6 0 10 -11 10 -25
0 -14 4 -25 10 -25 5 0 9 -3 8 -7 -4 -14 20 -77 66 -173 11 -25 23 -47 26 -50
3 -3 11 -17 19 -32 8 -15 22 -36 32 -47 10 -10 15 -21 12 -25 -3 -3 2 -8 11
-12 9 -3 16 -10 16 -15 0 -12 42 -73 53 -77 4 -2 7 -10 7 -18 0 -8 4 -14 8
-14 4 0 15 -12 24 -27 10 -16 31 -43 48 -61 17 -17 29 -32 26 -32 -3 0 2 -9
11 -20 10 -11 23 -20 30 -20 7 0 12 -3 10 -8 -3 -11 39 -62 52 -62 6 0 11 -5
11 -10 0 -17 399 -409 417 -410 4 -1 19 -14 33 -30 13 -17 30 -30 38 -30 7 0
10 -4 7 -10 -3 -5 -1 -10 5 -10 6 0 22 -10 35 -22 29 -28 42 -38 75 -59 14 -9
39 -28 55 -43 17 -14 36 -26 43 -26 6 0 12 -5 12 -11 0 -5 4 -8 8 -5 5 3 14
-4 22 -14 8 -10 17 -17 21 -14 4 2 13 -2 21 -9 19 -18 131 -82 141 -79 4 1 7
-3 7 -8 0 -6 9 -10 20 -10 11 0 20 -5 20 -11 0 -5 4 -8 9 -4 5 3 12 1 16 -5 4
-6 11 -8 16 -5 5 4 9 1 9 -4 0 -6 7 -11 15 -11 9 0 27 -7 40 -16 14 -9 25 -13
25 -10 0 4 10 0 23 -9 13 -8 27 -12 30 -8 4 3 7 1 7 -6 0 -7 6 -11 14 -8 8 3
16 1 18 -5 4 -10 13 -13 65 -20 7 -1 14 -6 16 -12 3 -6 21 -11 41 -10 21 1 36
-3 36 -10 0 -6 5 -4 10 4 5 8 10 10 10 4 0 -7 7 -15 16 -18 10 -4 13 -2 8 7
-6 9 -4 9 7 1 8 -6 22 -10 32 -9 15 3 16 1 6 -11 -10 -12 -9 -13 3 -9 12 5 14
0 11 -19 l-5 -26 255 1 c211 2 254 4 250 15 -6 17 -15 18 -31 2 -9 -9 -12 -9
-12 1 0 7 -4 10 -8 7 -5 -3 -9 1 -9 9 0 8 4 12 8 9 4 -2 13 4 19 13 11 17 11
17 6 0 -3 -9 -1 -17 4 -17 6 0 10 8 11 18 0 10 3 12 6 5 2 -7 9 -13 14 -13 6
0 7 6 3 13 -5 7 0 6 11 -3 17 -14 18 -13 13 2 -7 17 7 19 31 4 9 -6 12 -5 8 1
-4 6 0 14 9 17 8 3 12 2 9 -3 -3 -5 8 -3 25 6 17 8 38 12 46 9 8 -3 12 -2 9 4
-6 9 8 14 27 11 4 0 23 8 43 19 24 13 35 16 35 7 0 -7 7 -4 15 7 7 10 18 15
24 11 6 -3 11 -1 11 4 0 6 9 11 19 11 11 0 23 5 26 10 4 6 11 8 16 5 5 -4 9 1
9 11 0 13 3 14 15 4 11 -9 15 -9 15 -1 0 7 4 10 9 7 5 -4 11 -1 13 4 2 6 10
12 18 14 8 1 26 8 40 16 25 14 31 16 51 19 5 0 7 6 3 13 -4 6 -3 8 4 4 12 -7
62 13 62 26 0 4 3 7 8 6 4 -1 17 3 28 10 12 6 24 8 28 5 3 -3 6 -1 6 5 0 7 15
19 33 27 49 24 83 45 72 45 -9 0 19 19 55 37 8 4 20 12 27 17 22 19 37 31 73
56 19 13 40 29 46 35 7 5 26 21 44 35 18 14 47 40 66 58 19 17 38 32 42 32 4
0 18 14 32 30 14 17 31 30 38 30 7 0 11 4 7 9 -3 5 4 12 15 16 11 3 20 13 20
21 0 8 6 14 13 14 6 0 27 16 44 35 18 19 37 35 43 35 5 0 10 7 10 16 0 8 3 13
8 11 9 -6 33 19 25 27 -4 3 -1 6 5 6 15 0 112 96 105 104 -4 3 -1 6 6 6 16 0
41 25 41 41 0 7 3 9 6 6 4 -4 20 10 35 30 16 20 29 33 29 29 0 -4 12 7 27 26
15 18 33 37 40 41 7 4 13 15 13 22 0 8 7 15 17 15 9 0 14 3 10 6 -8 8 16 33
26 27 4 -2 7 3 7 11 0 9 5 16 10 16 6 0 10 4 10 9 0 5 13 24 29 41 48 54 60
68 55 73 -2 2 5 12 16 22 11 10 20 22 20 26 0 4 13 22 30 40 16 18 28 35 26
37 -3 2 3 12 12 22 32 35 42 49 42 59 0 5 3 11 8 13 7 3 27 38 60 103 9 17 20
33 26 37 6 4 7 8 3 8 -5 0 0 16 12 36 12 19 21 41 21 49 0 7 6 20 13 27 6 7
13 20 14 28 4 35 15 75 21 80 4 3 8 16 10 30 1 14 4 36 7 50 23 121 28 182 28
325 0 156 -11 275 -27 294 -9 12 -8 13 2 7 11 -7 12 -4 3 11 -5 11 -12 36 -14
54 -2 19 -7 40 -11 47 -4 7 -5 12 -1 12 3 0 1 10 -6 21 -6 12 -7 19 -1 15 6
-4 8 2 5 14 -3 11 -9 20 -13 20 -4 0 -7 14 -8 31 0 17 -8 42 -17 56 -10 14
-12 22 -5 18 9 -6 9 -3 1 14 -7 11 -16 21 -22 21 -6 0 -8 4 -4 9 5 9 -13 59
-25 71 -6 6 -12 29 -13 48 0 6 -4 12 -9 12 -4 0 -8 7 -8 15 0 8 -5 15 -10 15
-6 0 -9 3 -8 8 4 15 -14 52 -23 47 -5 -3 -6 0 -4 7 3 8 -4 24 -15 36 -11 12
-18 22 -14 22 3 0 -1 11 -10 25 -9 13 -16 31 -16 40 0 8 -6 14 -12 13 -7 -2
-12 5 -10 14 1 9 -7 22 -18 28 -11 6 -18 15 -15 21 4 5 1 9 -5 9 -6 0 -14 8
-17 18 -4 9 -15 28 -25 41 -10 13 -18 33 -18 45 0 17 -2 18 -10 6 -8 -12 -10
-12 -10 -1 0 15 -65 109 -89 129 -8 6 -11 12 -7 12 4 0 1 6 -6 14 -7 7 -20 24
-28 36 -8 13 -23 30 -32 39 -10 8 -18 20 -18 26 0 6 -11 19 -25 29 -13 10 -22
22 -20 27 3 4 -4 10 -15 14 -11 3 -20 14 -20 22 0 9 -3 14 -6 10 -6 -6 -34 16
-34 27 0 11 -109 114 -114 108 -3 -3 -6 0 -6 6 0 11 -136 152 -146 152 -2 0
-31 27 -63 60 -32 33 -64 60 -70 60 -6 0 -11 4 -11 9 0 4 -17 20 -37 34 -21
14 -54 39 -73 56 -19 17 -40 31 -46 31 -7 0 -14 7 -18 15 -3 8 -12 15 -21 15
-8 0 -15 5 -15 10 0 6 -7 10 -15 10 -8 0 -15 3 -15 8 0 4 -16 16 -35 26 -19
11 -35 24 -35 29 0 6 -3 8 -6 4 -3 -3 -15 3 -27 14 -11 10 -27 19 -34 19 -7 0
-13 3 -13 8 0 4 -24 18 -53 32 -28 14 -54 27 -57 30 -9 9 -128 63 -135 61 -3
-1 -13 5 -21 14 -9 8 -24 15 -35 15 -10 0 -19 5 -19 11 0 6 -7 9 -15 5 -8 -3
-15 0 -15 6 0 6 -3 9 -6 5 -3 -3 -22 3 -41 14 -20 11 -41 18 -48 15 -7 -2 -22
2 -34 10 -12 8 -26 12 -31 9 -6 -3 -10 -2 -10 2 0 5 -8 10 -17 11 -10 1 -34 4
-53 6 -19 2 -39 4 -43 5 -5 1 -5 7 -1 14 6 9 4 9 -7 1 -16 -12 -29 -12 -46 -1
-8 5 -13 3 -13 -3 0 -6 -13 -2 -29 9 -16 12 -33 21 -38 21 -4 0 0 -5 10 -11 9
-5 17 -14 17 -20 0 -5 -10 -3 -23 6 -13 8 -27 12 -30 8 -4 -3 -7 -1 -7 7 0 10
-4 10 -17 -1 -16 -12 -17 -12 -6 2 7 9 11 18 8 20 -2 3 6 6 18 6 17 2 19 0 7
-7 -11 -7 -12 -10 -2 -10 8 0 16 9 19 20 3 11 9 17 14 14 5 -3 9 0 9 5 0 8
-100 11 -315 11 -277 0 -315 -2 -315 -15z"/>
<path d="M2070 4960 c0 -5 5 -10 11 -10 5 0 7 5 4 10 -3 6 -8 10 -11 10 -2 0
-4 -4 -4 -10z"/>
</g>
</svg>
